Coordinates
version=1
nRows=14
nColumns=33
inDegrees=yes

Units are S.I. units (second, meters, Newtons, ...)
Angles are in degrees.

endheader
time	ground_thorax_rot_x	ground_thorax_rot_y	ground_thorax_rot_z	ground_thorax_tx	ground_thorax_ty	ground_thorax_tz	clav_prot_r	clav_elev_r	scapula_abduction_r	scapula_elevation_r	scapula_upward_rot_r	scapula_winging_r	shoulder_elv_r	plane_of_elev_r	axial_rot_r	elbow_flexion_r	pro_sup_r	wrist_flex_r	wrist_dev_r	clav_prot_l	clav_elev_l	scapula_abduction_l	scapula_elevation_l	scapula_upward_rot_l	scapula_winging_l	shoulder_elv_l	plane_of_elev_l	axial_rot_l	elbow_flexion_l	pro_sup_l	wrist_flex_l	wrist_dev_l
      1.10000000	      2.41855764	     -1.77437979	     -0.29638599	     -0.14886537	      0.98760114	      0.00444827	     -2.82582025	     -5.17704061	     -1.57705069	      2.78209063	     -0.71759433	     -0.26907934	     47.98694919	    -13.09500545	     20.99435518	     63.51500929	    -20.94953373	     -7.38943196	      5.10122329	     -6.35384794	     -6.47680427	      7.95171380	     -2.06929397	     -5.22831980	     -2.90979679	     45.39777723	    -19.58415103	     -7.40305388	     68.89816038	      8.47991997	     15.88040250	      5.90120288
      1.11000000	      2.39420759	     -1.79419483	     -0.40685355	     -0.14862364	      0.98799657	      0.00421744	     -2.57123774	     -5.80739440	     -1.07070007	      2.26495454	     -0.86154908	     -0.20422448	     48.08132011	    -12.33397483	     20.28829399	     61.71292405	    -20.73859615	     -7.99440922	      5.23371711	     -6.18387808	     -7.13605578	      7.50150438	     -1.43270107	     -5.16011650	     -3.00380368	     45.40644284	    -18.55955327	     -6.80276286	     67.33869700	      8.50975483	     16.37834717	      6.76793510
      1.12000000	      2.30848743	     -1.84146013	     -0.24732154	     -0.14905010	      0.98726914	      0.00388214	     -1.96993977	     -5.87915954	     -0.28786523	      2.49234567	     -1.57129753	     -0.28895599	     48.30764828	    -10.92931954	     19.27656087	     59.85860865	    -20.06564025	     -9.45453234	      6.11451259	     -5.76162027	     -7.15460097	      6.80031892	     -1.48567865	     -5.30246530	     -2.88227417	     45.36392850	    -16.91813491	     -6.06446267	     65.55936697	      8.37127454	     18.08588839	      8.80254456
      1.13000000	      2.23104161	     -1.87313797	     -0.30285134	     -0.14878869	      0.98772966	      0.00368374	     -1.72625472	     -6.55350205	      0.20568093	      1.92411040	     -1.68844402	     -0.21350371	     48.33788949	    -10.25287657	     18.71237850	     57.98290179	    -19.82754774	     -9.92476781	      6.19683634	     -5.57420029	     -7.86520542	      6.29695297	     -0.77698075	     -5.17040418	     -2.98227676	     45.50562619	    -16.10790678	     -5.64677630	     63.73845949	      8.50794000	     18.32104269	      9.39434981
      1.14000000	      2.22570008	     -1.91619224	     -0.02344717	     -0.14881943	      0.98803819	      0.00357523	     -1.43123345	     -7.06471956	      0.78628920	      1.47901631	     -1.73610498	     -0.21148280	     48.34433773	     -9.77493981	     18.61142783	     56.16681242	    -19.69000109	    -10.30189121	      6.19156271	     -5.27453027	     -8.45642271	      5.62458118	     -0.18446560	     -5.04039403	     -3.01662749	     45.66574189	    -15.57241828	     -5.75634075	     61.71072364	      8.70902067	     18.47104314	      9.84979222
      1.15000000	      2.10399753	     -1.96987324	      0.02036890	     -0.14924324	      0.98684892	      0.00313852	     -0.83282791	     -6.94357325	      1.43428590	      1.98724646	     -2.70433023	     -0.30381100	     48.47764852	     -7.77955976	     16.87512922	     53.81869831	    -18.99389661	    -11.87200133	      7.38151054	     -4.81540018	     -8.20145818	      4.96385637	     -0.55716768	     -5.34448735	     -2.81971226	     45.51856280	    -13.37988677	     -4.63147865	     59.57765007	      8.51772290	     19.96283013	     11.69198608
      1.16000000	      2.05379690	     -1.96054073	      0.10419928	     -0.14922767	      0.98726572	      0.00290084	     -0.52611312	     -7.56459435	      2.03714882	      1.44574629	     -2.76246494	     -0.28076523	     48.56169726	     -7.29329596	     16.69628650	     51.87248192	    -18.79360175	    -12.24274491	      7.42864753	     -4.52273973	     -8.93297850	      4.26718609	      0.18831150	     -5.15638047	     -2.88916640	     45.75609285	    -12.82289829	     -4.64527501	     57.43482520	      8.73636462	     20.10923391	     12.14188541
      1.17000000	      1.94749313	     -2.07990536	      0.22650606	     -0.14961333	      0.98659414	      0.00264472	     -0.00078605	     -7.71777451	      2.60674465	      1.70503162	     -3.73709683	     -0.28596227	     48.92940443	     -5.54271498	     15.24657275	     49.59702682	    -18.01127975	    -13.29780675	      8.89451154	     -4.05602591	     -8.93953804	      3.56216958	      0.05563902	     -5.47109531	     -2.76198843	     45.84195039	    -11.06306900	     -3.57284705	     54.93176768	      8.61722885	     21.55888755	     13.38894330
      1.18000000	      1.89069617	     -2.06661592	      0.27848285	     -0.14961684	      0.98698126	      0.00234074	      0.30566619	     -8.31128599	      3.21415985	      1.16647737	     -3.73936952	     -0.27717615	     49.01017511	     -5.06532536	     15.13479631	     47.58521975	    -17.80206608	    -13.63448655	      8.93452028	     -3.74858745	     -9.65830339	      2.84593740	      0.79674761	     -5.25952887	     -2.82831212	     46.07967618	    -10.50134287	     -3.59247128	     52.62767235	      8.87789077	     21.70243711	     13.78988323
      1.19000000	      1.79315770	     -2.08878439	      0.33853378	     -0.14962419	      0.98735523	      0.00206655	      0.59782894	     -8.85034363	      3.76910604	      0.69270243	     -3.77877571	     -0.26232587	     48.99294765	     -4.45234200	     14.88097588	     45.48356470	    -17.63402423	    -14.00123796	      9.02522522	     -3.46604861	    -10.28214137	      2.21135833	      1.43332342	     -5.09194090	     -2.89546563	     46.25174043	     -9.77984530	     -3.31215958	     50.11756391	      9.08958663	     21.90651431	     14.21750523
      1.20000000	      1.74791993	     -2.20378724	      0.44692218	     -0.15004122	      0.98605432	      0.00174071	      1.02437142	     -8.59508139	      4.22761530	      1.21748550	     -4.48279848	     -0.41657778	     49.09661677	     -2.43222641	     13.55268590	     42.99058887	    -17.12579325	    -14.62462361	     10.54882003	     -2.90731129	     -9.84831943	      1.46607930	      0.81882341	     -5.58211457	     -2.58631539	     46.08565520	     -7.30809666	     -1.51506993	     47.04490434	      8.89856816	     23.61572141	     14.64870965
      1.21000000	      1.66330273	     -2.18286360	      0.46102937	     -0.15007902	      0.98648189	      0.00147311	      1.33024492	     -9.11195330	      4.81986453	      0.74124478	     -4.46519117	     -0.43082630	     49.16796964	     -1.95370009	     13.49482986	     41.03034089	    -16.88034558	    -14.93408398	     10.61970544	     -2.57744219	    -10.48851866	      0.73450842	      1.48831122	     -5.36438420	     -2.62306371	     46.36364591	     -6.82054078	     -1.49859056	     44.72077607	      9.20214051	     23.78665723	     14.96466063
      1.22000000	      1.61701561	     -2.31344867	      0.15775252	     -0.15010700	      0.98606393	      0.00130085	      1.58422574	     -9.25416902	      5.23338114	      0.66317566	     -4.58425155	     -0.50177126	     49.23617313	     -0.48499368	     12.68834885	     38.82124222	    -16.40516485	    -15.22803273	     11.41285149	     -2.16880448	    -10.59087647	      0.06263667	      1.51407863	     -5.50644944	     -2.49675004	     46.45596998	     -5.13286373	      0.07644238	     42.04063966	      9.24258347	     24.43386659	     14.88052897
      1.23000000	      1.55835496	     -2.01188258	      0.62525898	     -0.15092563	      0.98589194	      0.00119838	      1.79594373	     -9.28290439	      5.17238102	      1.13246496	     -5.79974995	     -0.35973231	     49.93677973	      1.02659599	     11.21208197	     36.60140073	    -13.52635012	    -15.03833986	     14.31494071	     -1.01800841	    -10.67032218	     -1.68436032	      1.26065121	     -6.24333398	     -2.10416924	     47.14846538	     -4.04549906	      1.50526339	     39.58680051	     10.88957749	     26.39296422	     13.30228859
